<svg version="1.2" xmlns="http://www.w3.org/2000/svg" viewBox="0 0 100 100" width="100" height="100"><style>.a{fill:#2563eb}</style><path fill-rule="evenodd" class="a" d="m50 100c-27.7 0-50-22.4-50-50 0-27.7 22.3-50 50-50 27.6 0 50 22.3 50 50 0 27.6-22.4 50-50 50zm10.6-70.6c-2.8-2.8-6.6-4.4-10.6-4.4-4 0-7.8 1.6-10.6 4.4-2.8 2.8-4.4 6.6-4.4 10.6 0 4 1.6 7.8 4.4 10.6 2.8 2.8 6.6 4.4 10.6 4.4 4 0 7.8-1.6 10.6-4.4 2.8-2.8 4.4-6.6 4.4-10.6 0-4-1.6-7.8-4.4-10.6zm-34.6 51.9q3.3 2.8 7.2 4.7 3.9 2 8.2 3 4.2 1 8.6 1 4.4 0 8.6-1 4.3-1 8.2-3 3.9-1.9 7.2-4.7 3.4-2.8 6-6.3-2.6-3.5-6-6.3-3.3-2.8-7.2-4.7-3.9-2-8.2-3-4.2-1-8.6-1-4.4 0-8.6 1-4.3 1-8.2 3-3.9 1.9-7.2 4.7-3.4 2.8-6 6.3 2.6 3.5 6 6.3z"/></svg>